<svg width="65" height="33" viewBox="0 0 65 33" fill="none" xmlns="http://www.w3.org/2000/svg">
<path fill-rule="evenodd" clip-rule="evenodd" d="M17.5563 0.585787C16.7753 -0.195262 15.509 -0.195262 14.7279 0.585787L1.10071 14.213C0.915001 14.3065 0.740829 14.4308 0.585777 14.5858C0.177177 14.9944 -0.017662 15.5358 0.00125122 16.0711C-0.017662 16.6063 0.177177 17.1477 0.585777 17.5563C0.740829 17.7114 0.915001 17.8357 1.10071 17.9292L14.7279 31.5564C15.509 32.3374 16.7753 32.3374 17.5563 31.5564C18.3374 30.7753 18.3374 29.509 17.5563 28.7279L6.82841 18H62.1421C63.2467 18 64.1421 17.1046 64.1421 16C64.1421 14.8954 63.2467 14 62.1421 14H6.97056L17.5563 3.41421C18.3374 2.63317 18.3374 1.36684 17.5563 0.585787Z" fill="#8542C8"/>
</svg>
