<svg width="232" height="61" viewBox="0 0 232 61" fill="none" xmlns="http://www.w3.org/2000/svg">
<path d="M9.408 10.672C10.688 10.672 11.6053 10.384 12.16 9.808C12.736 9.21067 13.024 8.44267 13.024 7.504C13.024 6.608 12.736 5.872 12.16 5.296C11.6053 4.72 10.688 4.432 9.408 4.432H5.184V10.672H9.408ZM0.736 22V0.751999H10.112C11.1573 0.751999 12.096 0.933332 12.928 1.296C13.76 1.63733 14.4747 2.128 15.072 2.768C15.6693 3.38667 16.128 4.112 16.448 4.944C16.768 5.776 16.928 6.672 16.928 7.632C16.928 8.592 16.768 9.488 16.448 10.32C16.128 11.1307 15.6693 11.8347 15.072 12.432C14.4747 13.008 13.76 13.4667 12.928 13.808C12.096 14.128 11.1573 14.288 10.112 14.288H5.184V22H0.736ZM17.9258 22V6.256H21.8298V8.144C22.1711 7.61067 22.5231 7.19467 22.8858 6.896C23.2698 6.59733 23.6538 6.37333 24.0378 6.224C24.4431 6.05333 24.8484 5.94667 25.2538 5.904C25.6591 5.86133 26.0751 5.84 26.5017 5.84H27.0458V10.096C26.6618 10.032 26.2778 10 25.8938 10C23.3551 10 22.0858 11.2693 22.0858 13.808V22H17.9258ZM37.6063 12.592C37.5849 12.016 37.4783 11.5147 37.2863 11.088C37.1156 10.64 36.8809 10.2773 36.5823 10C36.2836 9.70133 35.9423 9.488 35.5583 9.36C35.1743 9.21067 34.7796 9.136 34.3743 9.136C33.5423 9.136 32.8169 9.44533 32.1983 10.064C31.6009 10.6613 31.2596 11.504 31.1743 12.592H37.6063ZM31.0463 15.216C31.1103 16.4107 31.4516 17.36 32.0703 18.064C32.7103 18.768 33.5423 19.12 34.5663 19.12C35.2489 19.12 35.8463 18.9707 36.3583 18.672C36.8916 18.352 37.2329 17.9147 37.3823 17.36H41.6703C41.1796 18.9813 40.3263 20.2293 39.1103 21.104C37.8943 21.9787 36.4436 22.416 34.7583 22.416C29.5103 22.416 26.8863 19.5573 26.8863 13.84C26.8863 12.624 27.0569 11.5253 27.3983 10.544C27.7396 9.56267 28.2303 8.72 28.8703 8.016C29.5316 7.312 30.3316 6.77867 31.2703 6.416C32.2089 6.032 33.2863 5.84 34.5023 5.84C36.9343 5.84 38.7689 6.61867 40.0063 8.176C41.2649 9.73333 41.8943 12.08 41.8943 15.216H31.0463ZM52.804 11.024C52.6973 10.256 52.42 9.72267 51.972 9.424C51.524 9.104 50.82 8.944 49.86 8.944C49.0707 8.944 48.4627 9.05067 48.036 9.264C47.6093 9.456 47.396 9.78667 47.396 10.256C47.396 10.7253 47.6093 11.088 48.036 11.344C48.4627 11.5787 49.1027 11.8133 49.956 12.048C50.852 12.304 51.7053 12.5387 52.516 12.752C53.3267 12.944 54.0413 13.1573 54.66 13.392C55.492 13.7333 56.132 14.2027 56.58 14.8C57.028 15.376 57.252 16.176 57.252 17.2C57.252 18.8427 56.6653 20.1227 55.492 21.04C54.34 21.9573 52.6333 22.416 50.372 22.416C47.94 22.416 46.0733 21.904 44.772 20.88C43.492 19.856 42.8307 18.544 42.788 16.944H47.076C47.076 17.6907 47.364 18.2667 47.94 18.672C48.516 19.0773 49.316 19.28 50.34 19.28C51.0867 19.28 51.7373 19.1627 52.292 18.928C52.8467 18.672 53.124 18.2453 53.124 17.648C53.124 17.0933 52.868 16.6987 52.356 16.464C51.8653 16.2293 51.2787 16.0267 50.596 15.856C49.2733 15.536 48.2067 15.248 47.396 14.992C46.5853 14.736 45.9027 14.4267 45.348 14.064C44.6013 13.5947 44.0787 13.0613 43.78 12.464C43.5027 11.8667 43.364 11.216 43.364 10.512C43.364 9.85067 43.4813 9.232 43.716 8.656C43.9507 8.08 44.3347 7.58933 44.868 7.184C45.4013 6.75733 46.084 6.42667 46.916 6.192C47.7693 5.95733 48.7933 5.84 49.988 5.84C52.2707 5.84 53.9453 6.27733 55.012 7.152C56.1 8.02667 56.6973 9.31733 56.804 11.024H52.804ZM67.8978 11.024C67.7911 10.256 67.5138 9.72267 67.0658 9.424C66.6178 9.104 65.9138 8.944 64.9538 8.944C64.1644 8.944 63.5564 9.05067 63.1298 9.264C62.7031 9.456 62.4898 9.78667 62.4898 10.256C62.4898 10.7253 62.7031 11.088 63.1298 11.344C63.5564 11.5787 64.1964 11.8133 65.0498 12.048C65.9458 12.304 66.7991 12.5387 67.6098 12.752C68.4204 12.944 69.1351 13.1573 69.7538 13.392C70.5858 13.7333 71.2258 14.2027 71.6738 14.8C72.1218 15.376 72.3458 16.176 72.3458 17.2C72.3458 18.8427 71.7591 20.1227 70.5858 21.04C69.4338 21.9573 67.7271 22.416 65.4658 22.416C63.0338 22.416 61.1671 21.904 59.8658 20.88C58.5858 19.856 57.9244 18.544 57.8818 16.944H62.1698C62.1698 17.6907 62.4578 18.2667 63.0338 18.672C63.6098 19.0773 64.4098 19.28 65.4338 19.28C66.1804 19.28 66.8311 19.1627 67.3858 18.928C67.9404 18.672 68.2178 18.2453 68.2178 17.648C68.2178 17.0933 67.9618 16.6987 67.4498 16.464C66.9591 16.2293 66.3724 16.0267 65.6898 15.856C64.3671 15.536 63.3004 15.248 62.4898 14.992C61.6791 14.736 60.9964 14.4267 60.4418 14.064C59.6951 13.5947 59.1724 13.0613 58.8738 12.464C58.5964 11.8667 58.4578 11.216 58.4578 10.512C58.4578 9.85067 58.5751 9.232 58.8098 8.656C59.0444 8.08 59.4284 7.58933 59.9618 7.184C60.4951 6.75733 61.1778 6.42667 62.0098 6.192C62.8631 5.95733 63.8871 5.84 65.0818 5.84C67.3644 5.84 69.0391 6.27733 70.1058 7.152C71.1938 8.02667 71.7911 9.31733 71.8978 11.024H67.8978ZM90.8063 14.288C90.5929 14.5013 90.2836 14.672 89.8783 14.8C89.4729 14.928 88.8863 15.0667 88.1183 15.216C86.9236 15.4507 86.1023 15.7493 85.6543 16.112C85.2063 16.4747 84.9823 16.9973 84.9823 17.68C84.9823 18.8533 85.6543 19.44 86.9983 19.44C87.5316 19.44 88.0223 19.3547 88.4703 19.184C88.9396 18.992 89.3343 18.7467 89.6543 18.448C89.9956 18.128 90.2623 17.7653 90.4543 17.36C90.6676 16.9333 90.7743 16.4853 90.7743 16.016L90.8063 14.288ZM91.0943 22C90.9663 21.5947 90.8809 21.1253 90.8383 20.592C90.3476 21.1467 89.6969 21.5947 88.8863 21.936C88.0756 22.256 87.1369 22.416 86.0703 22.416C84.2569 22.416 82.9236 22.0213 82.0703 21.232C81.2383 20.4213 80.8223 19.376 80.8223 18.096C80.8223 16.9653 81.0036 16.0693 81.3663 15.408C81.7289 14.7253 82.2303 14.192 82.8703 13.808C83.5103 13.424 84.2676 13.1467 85.1423 12.976C86.0383 12.784 87.0089 12.6133 88.0543 12.464C89.0996 12.3147 89.8036 12.1227 90.1663 11.888C90.5289 11.632 90.7103 11.2267 90.7103 10.672C90.7103 10.16 90.4649 9.76533 89.9743 9.488C89.5049 9.18933 88.8649 9.04 88.0543 9.04C87.0943 9.04 86.4009 9.25333 85.9743 9.68C85.5689 10.1067 85.3129 10.672 85.2063 11.376H81.3343C81.3556 10.5653 81.4836 9.81867 81.7183 9.136C81.9743 8.45333 82.3689 7.86667 82.9023 7.376C83.4569 6.88533 84.1716 6.512 85.0463 6.256C85.9209 5.97867 86.9876 5.84 88.2463 5.84C89.4836 5.84 90.5289 5.97867 91.3823 6.256C92.2569 6.53333 92.9503 6.93867 93.4623 7.472C93.9956 7.984 94.3796 8.63467 94.6143 9.424C94.8489 10.192 94.9663 11.0667 94.9663 12.048V22H91.0943ZM106.881 22V12.464C106.881 11.248 106.678 10.4267 106.273 10C105.867 9.57333 105.174 9.36 104.193 9.36C102.038 9.36 100.961 10.5653 100.961 12.976V22H96.8008V6.256H100.769V8.56C101.259 7.664 101.91 6.992 102.721 6.544C103.531 6.07467 104.577 5.84 105.857 5.84C106.603 5.84 107.297 5.95733 107.937 6.192C108.577 6.40533 109.121 6.736 109.569 7.184C110.038 7.632 110.401 8.18667 110.657 8.848C110.934 9.488 111.073 10.2347 111.073 11.088V22H106.881ZM120.351 19.024C121.353 19.024 122.185 18.608 122.847 17.776C123.529 16.944 123.871 15.856 123.871 14.512C123.871 11.0987 122.708 9.392 120.383 9.392C117.993 9.392 116.799 11.0133 116.799 14.256C116.799 15.664 117.129 16.816 117.791 17.712C118.452 18.5867 119.305 19.024 120.351 19.024ZM123.807 22L123.775 20.08C122.815 21.6373 121.353 22.416 119.391 22.416C118.388 22.416 117.471 22.224 116.639 21.84C115.807 21.456 115.092 20.9013 114.495 20.176C113.897 19.4507 113.428 18.5653 113.087 17.52C112.745 16.4747 112.575 15.2907 112.575 13.968C112.575 12.7733 112.713 11.6853 112.991 10.704C113.289 9.70133 113.716 8.83733 114.271 8.112C114.825 7.38667 115.497 6.832 116.286 6.448C117.097 6.04267 118.015 5.84 119.039 5.84C120.98 5.84 122.537 6.66133 123.711 8.304V0.495998H127.807V22H123.807ZM147.443 22V12.24C147.443 11.0453 147.23 10.2347 146.803 9.808C146.398 9.36 145.715 9.136 144.755 9.136C144.243 9.136 143.785 9.24267 143.379 9.456C142.974 9.648 142.633 9.92533 142.355 10.288C142.078 10.6293 141.865 11.0347 141.715 11.504C141.587 11.952 141.523 12.4427 141.523 12.976V22H137.363V0.495998H141.523V8.304C141.673 7.96267 141.897 7.64267 142.195 7.344C142.515 7.024 142.878 6.75733 143.283 6.544C143.689 6.33067 144.137 6.16 144.627 6.032C145.118 5.904 145.63 5.84 146.163 5.84C147.785 5.84 149.097 6.288 150.099 7.184C151.123 8.05867 151.635 9.28533 151.635 10.864V22H147.443ZM161.201 18.928C163.74 18.928 165.009 17.328 165.009 14.128C165.009 10.9493 163.74 9.36 161.201 9.36C158.662 9.36 157.393 10.9493 157.393 14.128C157.393 17.328 158.662 18.928 161.201 18.928ZM161.201 22.416C159.921 22.416 158.78 22.2133 157.777 21.808C156.774 21.4027 155.921 20.8373 155.217 20.112C154.534 19.3867 154.012 18.512 153.649 17.488C153.286 16.464 153.105 15.344 153.105 14.128C153.105 12.8907 153.286 11.76 153.649 10.736C154.033 9.712 154.577 8.83733 155.281 8.112C155.985 7.38667 156.828 6.832 157.809 6.448C158.812 6.04267 159.942 5.84 161.201 5.84C162.438 5.84 163.548 6.04267 164.529 6.448C165.51 6.832 166.342 7.38667 167.025 8.112C167.729 8.816 168.262 9.68 168.625 10.704C169.009 11.728 169.201 12.8693 169.201 14.128C169.201 15.3867 169.009 16.528 168.625 17.552C168.262 18.5547 167.729 19.4187 167.025 20.144C166.342 20.8693 165.5 21.4347 164.497 21.84C163.516 22.224 162.417 22.416 161.201 22.416ZM170.707 22V0.495998H174.867V22H170.707ZM184.069 19.024C185.072 19.024 185.904 18.608 186.565 17.776C187.248 16.944 187.589 15.856 187.589 14.512C187.589 11.0987 186.427 9.392 184.101 9.392C181.712 9.392 180.517 11.0133 180.517 14.256C180.517 15.664 180.848 16.816 181.509 17.712C182.171 18.5867 183.024 19.024 184.069 19.024ZM187.525 22L187.493 20.08C186.533 21.6373 185.072 22.416 183.109 22.416C182.107 22.416 181.189 22.224 180.357 21.84C179.525 21.456 178.811 20.9013 178.213 20.176C177.616 19.4507 177.147 18.5653 176.805 17.52C176.464 16.4747 176.293 15.2907 176.293 13.968C176.293 12.7733 176.432 11.6853 176.709 10.704C177.008 9.70133 177.435 8.83733 177.989 8.112C178.544 7.38667 179.216 6.832 180.005 6.448C180.816 6.04267 181.733 5.84 182.757 5.84C184.699 5.84 186.256 6.66133 187.429 8.304V0.495998H191.525V22H187.525ZM210.01 11.632H213.882V16.112C213.882 16.944 213.754 17.744 213.498 18.512C213.263 19.2587 212.879 19.9307 212.346 20.528C211.834 21.104 211.173 21.5627 210.362 21.904C209.573 22.2453 208.623 22.416 207.514 22.416C206.362 22.416 205.381 22.2453 204.57 21.904C203.759 21.5627 203.087 21.104 202.554 20.528C202.042 19.952 201.669 19.28 201.434 18.512C201.199 17.744 201.082 16.9333 201.082 16.08V2H205.178V6.256H213.882V9.2H205.178V15.664C205.178 16.6667 205.359 17.4453 205.722 18C206.106 18.5333 206.725 18.8 207.578 18.8C208.41 18.8 209.018 18.5333 209.402 18C209.807 17.4667 210.01 16.7093 210.01 15.728V11.632ZM223.326 18.928C225.865 18.928 227.134 17.328 227.134 14.128C227.134 10.9493 225.865 9.36 223.326 9.36C220.787 9.36 219.518 10.9493 219.518 14.128C219.518 17.328 220.787 18.928 223.326 18.928ZM223.326 22.416C222.046 22.416 220.905 22.2133 219.902 21.808C218.899 21.4027 218.046 20.8373 217.342 20.112C216.659 19.3867 216.137 18.512 215.774 17.488C215.411 16.464 215.23 15.344 215.23 14.128C215.23 12.8907 215.411 11.76 215.774 10.736C216.158 9.712 216.702 8.83733 217.406 8.112C218.11 7.38667 218.953 6.832 219.934 6.448C220.937 6.04267 222.067 5.84 223.326 5.84C224.563 5.84 225.673 6.04267 226.654 6.448C227.635 6.832 228.467 7.38667 229.15 8.112C229.854 8.816 230.387 9.68 230.75 10.704C231.134 11.728 231.326 12.8693 231.326 14.128C231.326 15.3867 231.134 16.528 230.75 17.552C230.387 18.5547 229.854 19.4187 229.15 20.144C228.467 20.8693 227.625 21.4347 226.622 21.84C225.641 22.224 224.542 22.416 223.326 22.416ZM78.4258 60V44.256H82.3298V46.144C82.6711 45.6107 83.0231 45.1947 83.3858 44.896C83.7698 44.5973 84.1538 44.3733 84.5378 44.224C84.9431 44.0533 85.3484 43.9467 85.7538 43.904C86.1591 43.8613 86.5751 43.84 87.0017 43.84H87.5458V48.096C87.1618 48.032 86.7778 48 86.3938 48C83.8551 48 82.5858 49.2693 82.5858 51.808V60H78.4258ZM98.1063 50.592C98.0849 50.016 97.9783 49.5147 97.7863 49.088C97.6156 48.64 97.3809 48.2773 97.0823 48C96.7836 47.7013 96.4423 47.488 96.0583 47.36C95.6743 47.2107 95.2796 47.136 94.8743 47.136C94.0423 47.136 93.3169 47.4453 92.6983 48.064C92.1009 48.6613 91.7596 49.504 91.6743 50.592H98.1063ZM91.5463 53.216C91.6103 54.4107 91.9516 55.36 92.5703 56.064C93.2103 56.768 94.0423 57.12 95.0663 57.12C95.7489 57.12 96.3463 56.9707 96.8583 56.672C97.3916 56.352 97.7329 55.9147 97.8823 55.36H102.17C101.68 56.9813 100.826 58.2293 99.6103 59.104C98.3943 59.9787 96.9436 60.416 95.2583 60.416C90.0103 60.416 87.3863 57.5573 87.3863 51.84C87.3863 50.624 87.5569 49.5253 87.8983 48.544C88.2396 47.5627 88.7303 46.72 89.3703 46.016C90.0316 45.312 90.8316 44.7787 91.7703 44.416C92.7089 44.032 93.7863 43.84 95.0023 43.84C97.4343 43.84 99.2689 44.6187 100.506 46.176C101.765 47.7333 102.394 50.08 102.394 53.216H91.5463ZM107.634 60L102.002 44.256H106.642L109.938 54.656L113.266 44.256H117.65L111.986 60H107.634ZM128.044 50.592C128.022 50.016 127.916 49.5147 127.724 49.088C127.553 48.64 127.318 48.2773 127.02 48C126.721 47.7013 126.38 47.488 125.996 47.36C125.612 47.2107 125.217 47.136 124.812 47.136C123.98 47.136 123.254 47.4453 122.636 48.064C122.038 48.6613 121.697 49.504 121.612 50.592H128.044ZM121.484 53.216C121.548 54.4107 121.889 55.36 122.508 56.064C123.148 56.768 123.98 57.12 125.004 57.12C125.686 57.12 126.284 56.9707 126.796 56.672C127.329 56.352 127.67 55.9147 127.82 55.36H132.108C131.617 56.9813 130.764 58.2293 129.548 59.104C128.332 59.9787 126.881 60.416 125.196 60.416C119.948 60.416 117.324 57.5573 117.324 51.84C117.324 50.624 117.494 49.5253 117.836 48.544C118.177 47.5627 118.668 46.72 119.308 46.016C119.969 45.312 120.769 44.7787 121.708 44.416C122.646 44.032 123.724 43.84 124.94 43.84C127.372 43.84 129.206 44.6187 130.444 46.176C131.702 47.7333 132.332 50.08 132.332 53.216H121.484ZM143.338 52.288C143.124 52.5013 142.815 52.672 142.41 52.8C142.004 52.928 141.418 53.0667 140.65 53.216C139.455 53.4507 138.634 53.7493 138.186 54.112C137.738 54.4747 137.514 54.9973 137.514 55.68C137.514 56.8533 138.186 57.44 139.53 57.44C140.063 57.44 140.554 57.3547 141.002 57.184C141.471 56.992 141.866 56.7467 142.186 56.448C142.527 56.128 142.794 55.7653 142.986 55.36C143.199 54.9333 143.306 54.4853 143.306 54.016L143.338 52.288ZM143.626 60C143.498 59.5947 143.412 59.1253 143.37 58.592C142.879 59.1467 142.228 59.5947 141.418 59.936C140.607 60.256 139.668 60.416 138.602 60.416C136.788 60.416 135.455 60.0213 134.602 59.232C133.77 58.4213 133.354 57.376 133.354 56.096C133.354 54.9653 133.535 54.0693 133.898 53.408C134.26 52.7253 134.762 52.192 135.402 51.808C136.042 51.424 136.799 51.1467 137.674 50.976C138.57 50.784 139.54 50.6133 140.586 50.464C141.631 50.3147 142.335 50.1227 142.698 49.888C143.06 49.632 143.242 49.2267 143.242 48.672C143.242 48.16 142.996 47.7653 142.506 47.488C142.036 47.1893 141.396 47.04 140.586 47.04C139.626 47.04 138.932 47.2533 138.506 47.68C138.1 48.1067 137.844 48.672 137.738 49.376H133.866C133.887 48.5653 134.015 47.8187 134.25 47.136C134.506 46.4533 134.9 45.8667 135.434 45.376C135.988 44.8853 136.703 44.512 137.578 44.256C138.452 43.9787 139.519 43.84 140.778 43.84C142.015 43.84 143.06 43.9787 143.914 44.256C144.788 44.5333 145.482 44.9387 145.994 45.472C146.527 45.984 146.911 46.6347 147.146 47.424C147.38 48.192 147.498 49.0667 147.498 50.048V60H143.626ZM149.332 60V38.496H153.492V60H149.332Z" fill="white"/>
</svg>
