<svg width="40" height="40" viewBox="0 0 40 40" fill="none" xmlns="http://www.w3.org/2000/svg">
<circle cx="20" cy="20" r="20" fill="#AAAAAA" fill-opacity="0.15"/>
<path fill-rule="evenodd" clip-rule="evenodd" d="M17 28C17 29.1046 17.8954 30 19 30H20C21.1046 30 22 29.1046 22 28V25.5355L23.7279 27.2635C24.509 28.0445 25.7753 28.0445 26.5563 27.2635L27.2635 26.5563C28.0445 25.7753 28.0445 24.509 27.2635 23.7279L25.5355 22H28C29.1046 22 30 21.1046 30 20V19C30 17.8954 29.1046 17 28 17H26.2132L27.2635 15.9497C28.0445 15.1687 28.0445 13.9024 27.2635 13.1213L26.5563 12.4142C25.7753 11.6332 24.509 11.6332 23.7279 12.4142L22 14.1421V12C22 10.8954 21.1046 10 20 10H19C17.8954 10 17 10.8954 17 12V13.4645L15.9497 12.4142C15.1687 11.6332 13.9024 11.6332 13.1213 12.4142L12.4142 13.1213C11.6332 13.9024 11.6332 15.1687 12.4142 15.9497L13.4645 17H12C10.8954 17 10 17.8954 10 19V20C10 21.1046 10.8954 22 12 22H14.1421L12.4142 23.7279C11.6332 24.509 11.6332 25.7753 12.4142 26.5563L13.1213 27.2635C13.9024 28.0445 15.1687 28.0445 15.9497 27.2635L17 26.2132V28ZM19.5 23C21.433 23 23 21.433 23 19.5C23 17.567 21.433 16 19.5 16C17.567 16 16 17.567 16 19.5C16 21.433 17.567 23 19.5 23Z" fill="black"/>
</svg>
