<svg width="41" height="41" viewBox="0 0 41 41" fill="none" xmlns="http://www.w3.org/2000/svg">
<path fill-rule="evenodd" clip-rule="evenodd" d="M22.734 2.5C22.734 1.11929 21.6147 0 20.234 0C18.8533 0 17.734 1.11929 17.734 2.5V17.734H2.5C1.11929 17.734 0 18.8533 0 20.234C0 21.6147 1.11929 22.734 2.5 22.734H17.734V37.968C17.734 39.3487 18.8533 40.468 20.234 40.468C21.6147 40.468 22.734 39.3487 22.734 37.968V22.734H37.968C39.3487 22.734 40.468 21.6147 40.468 20.234C40.468 18.8533 39.3487 17.734 37.968 17.734H22.734V2.5Z" fill="#888888"/>
</svg>
