<svg width="30" height="30" viewBox="0 0 30 30" fill="none" xmlns="http://www.w3.org/2000/svg">
<circle cx="15" cy="15" r="15" fill="black" fill-opacity="0.2"/>
<path opacity="0.6" fill-rule="evenodd" clip-rule="evenodd" d="M11.7601 9.63881C11.1743 9.05302 10.2246 9.05302 9.63878 9.63881C9.05299 10.2246 9.05299 11.1743 9.63878 11.7601L13.156 15.2774L9.63855 18.7948C9.05276 19.3806 9.05276 20.3303 9.63855 20.9161C10.2243 21.5019 11.1741 21.5019 11.7599 20.9161L15.2773 17.3987L18.7951 20.9165C19.3809 21.5023 20.3307 21.5023 20.9164 20.9165C21.5022 20.3307 21.5022 19.3809 20.9164 18.7952L17.3986 15.2774L20.9162 11.7598C21.502 11.174 21.502 10.2243 20.9162 9.63847C20.3304 9.05269 19.3807 9.05269 18.7949 9.63847L15.2773 13.156L11.7601 9.63881Z" fill="black"/>
</svg>
