<svg width="230" height="230" viewBox="0 0 230 230" fill="none" xmlns="http://www.w3.org/2000/svg">
<circle opacity="0.2" cx="115" cy="115" r="115" fill="#8542C8"/>
<path fill-rule="evenodd" clip-rule="evenodd" d="M44.0909 97.5899L114.959 63.2946L185.457 102.114L185.2 155.299L110.574 190L44.0909 151.019L44.0909 97.59L44.0909 97.59L44.0909 97.5899Z" fill="url(#paint0_linear)"/>
<path fill-rule="evenodd" clip-rule="evenodd" d="M37 76.8456L115.204 39L193 81.8381V100.382L110.365 138.322L37 95.4754L37.1679 95.3944L37 95.3891L37 76.8456Z" fill="url(#paint1_linear)"/>
<path fill-rule="evenodd" clip-rule="evenodd" d="M156.482 61.8681L140.527 53.3096L63.2364 90.7531V111.08L79.5455 120.57L79.5454 100.025L156.482 61.8681Z" fill="url(#paint2_linear)"/>
<path fill-rule="evenodd" clip-rule="evenodd" d="M68.5546 61.5115L85.5727 53.3096L163.218 93.2494V113.933L145.845 121.979L145.845 100.025L68.5546 61.5115Z" fill="url(#paint3_linear)"/>
<path d="M148.976 64.7099C150.787 85.4466 112.873 83.6211 112.873 83.6211L112.164 67.2172C112.164 67.2172 147.165 43.9732 148.976 64.7099Z" fill="#CEB3E9"/>
<path d="M148.976 64.7099C150.787 85.4466 112.873 83.6211 112.873 83.6211L112.164 67.2172C112.164 67.2172 147.165 43.9732 148.976 64.7099Z" fill="url(#paint4_linear)"/>
<path d="M128.005 79.2948C130.807 78.3409 136.345 74.6913 138.565 77.1038C140.786 79.5163 136.376 81.3908 127.786 82.8719C119.948 84.2233 112.164 83.7633 112.164 83.7633C112.164 83.7633 118.547 82.5139 128.005 79.2948Z" fill="url(#paint5_linear)"/>
<path d="M75.9263 67.2514C75.4983 88.0544 113.215 83.6547 113.215 83.6547L112.832 67.2476C112.832 67.2476 76.3543 46.4484 75.9263 67.2514Z" fill="#CEB3E9"/>
<path d="M75.9263 67.2514C75.4983 88.0544 113.215 83.6547 113.215 83.6547L112.832 67.2476C112.832 67.2476 76.3543 46.4484 75.9263 67.2514Z" fill="url(#paint6_linear)"/>
<path d="M96.2091 80.0114C93.3728 79.1681 87.7009 75.7404 85.5725 78.2346C83.444 80.7287 87.922 82.4285 96.5624 83.5732C104.446 84.6178 112.208 83.8565 112.208 83.8565C112.208 83.8565 105.782 82.8572 96.2091 80.0114Z" fill="url(#paint7_linear)"/>
<defs>
<linearGradient id="paint0_linear" x1="52.2455" y1="134.214" x2="174.564" y2="133.509" gradientUnits="userSpaceOnUse">
<stop stop-color="#662E9E"/>
<stop offset="0.487821" stop-color="#4D2079"/>
<stop offset="1" stop-color="#662E9E"/>
</linearGradient>
<linearGradient id="paint1_linear" x1="47.9909" y1="88.9248" x2="175.273" y2="88.9248" gradientUnits="userSpaceOnUse">
<stop stop-color="#8542C8"/>
<stop offset="0.515625" stop-color="#692DA6"/>
<stop offset="1" stop-color="#8542C8"/>
</linearGradient>
<linearGradient id="paint2_linear" x1="71.3909" y1="102.832" x2="146.063" y2="59.7023" gradientUnits="userSpaceOnUse">
<stop stop-color="#CEB3E9"/>
<stop offset="0.723958" stop-color="#A97BD8"/>
</linearGradient>
<linearGradient id="paint3_linear" x1="107.2" y1="72.8775" x2="153.843" y2="108.277" gradientUnits="userSpaceOnUse">
<stop stop-color="#A97BD8"/>
<stop offset="1" stop-color="#CEB3E9"/>
</linearGradient>
<linearGradient id="paint4_linear" x1="116.064" y1="73.2795" x2="141.647" y2="60.9149" gradientUnits="userSpaceOnUse">
<stop stop-color="#A97BD7"/>
<stop offset="1" stop-color="#DCCDEB"/>
</linearGradient>
<linearGradient id="paint5_linear" x1="128.583" y1="70.708" x2="143.8" y2="78.6104" gradientUnits="userSpaceOnUse">
<stop stop-color="#9D6ECD"/>
<stop offset="1" stop-color="#A97BD8" stop-opacity="0"/>
</linearGradient>
<linearGradient id="paint6_linear" x1="109.343" y1="73.5586" x2="83.0044" y2="62.927" gradientUnits="userSpaceOnUse">
<stop stop-color="#A97BD7"/>
<stop offset="1" stop-color="#DCCDEB"/>
</linearGradient>
<linearGradient id="paint7_linear" x1="95.3072" y1="71.4634" x2="80.4015" y2="79.9479" gradientUnits="userSpaceOnUse">
<stop stop-color="#9D6ECD"/>
<stop offset="1" stop-color="#A97BD8" stop-opacity="0"/>
</linearGradient>
</defs>
</svg>
