<svg width="30" height="30" viewBox="0 0 30 30" fill="none" xmlns="http://www.w3.org/2000/svg">
<path d="M11.4185 25.9667V22.1445C11.4185 21.1688 12.2152 20.3779 13.198 20.3779H16.7908C17.2627 20.3779 17.7154 20.564 18.0491 20.8953C18.3828 21.2266 18.5703 21.676 18.5703 22.1445V25.9667C18.5674 26.3723 18.7276 26.7623 19.0155 27.0502C19.3033 27.3381 19.6951 27.5 20.1037 27.5H22.5548C23.6995 27.5029 24.7984 27.0536 25.609 26.251C26.4195 25.4485 26.875 24.3587 26.875 23.2223V12.3336C26.875 11.4156 26.4651 10.5448 25.7558 9.95584L17.4175 3.34484C15.9671 2.1857 13.8889 2.22313 12.4817 3.43372L4.33377 9.95584C3.59093 10.5274 3.14694 11.4008 3.125 12.3336V23.2112C3.125 25.5798 5.05923 27.5 7.44522 27.5H9.84036C10.689 27.5 11.3787 26.8203 11.3849 25.9778L11.4185 25.9667Z" fill="white"/>
</svg>
