<svg width="30" height="30" viewBox="0 0 30 30" fill="none" xmlns="http://www.w3.org/2000/svg">
<circle cx="15" cy="15" r="15" fill="#AAAAAA" fill-opacity="0.15"/>
<path d="M16.4766 21H13.5059V11.4902H16.4766V21ZM13.3301 9.03809C13.3301 8.61621 13.4824 8.27051 13.7871 8.00098C14.0918 7.73145 14.4873 7.59668 14.9736 7.59668C15.46 7.59668 15.8555 7.73145 16.1602 8.00098C16.4648 8.27051 16.6172 8.61621 16.6172 9.03809C16.6172 9.45996 16.4648 9.80566 16.1602 10.0752C15.8555 10.3447 15.46 10.4795 14.9736 10.4795C14.4873 10.4795 14.0918 10.3447 13.7871 10.0752C13.4824 9.80566 13.3301 9.45996 13.3301 9.03809Z" fill="#222222"/>
</svg>
