<svg width="35" height="34" viewBox="0 0 35 34" fill="none" xmlns="http://www.w3.org/2000/svg">
<rect x="3.5" y="12.4342" width="28" height="20.7237" fill="#662E9E"/>
<rect y="8.28943" width="35" height="8.28947" fill="#8542C8"/>
<rect x="14.7" y="8.28943" width="5.6" height="8.28947" fill="white" fill-opacity="0.6"/>
<path fill-rule="evenodd" clip-rule="evenodd" d="M24.3402 1.76312C25.314 2.72404 25.314 4.282 24.3402 5.24292C23.3812 6.18935 21.7168 6.79849 18.6901 7.16612C18.9606 5.51048 19.2097 4.46481 19.4938 3.71578C19.8217 2.85136 20.1999 2.36914 20.814 1.76312C21.7878 0.802198 23.3665 0.802198 24.3402 1.76312ZM25.052 5.94533C23.8119 7.16912 21.7747 7.81754 18.5323 8.18522C18.2705 8.2149 18.001 8.24275 17.7233 8.26892C17.7245 8.27603 17.7257 8.28314 17.7269 8.29026C17.6978 8.28572 17.6689 8.2812 17.6401 8.2767C17.5936 8.281 17.5469 8.28525 17.5 8.28946C17.5016 8.27814 17.5033 8.26684 17.5049 8.25555C17.2182 8.21068 16.943 8.16739 16.6786 8.12528C13.0109 7.54107 11.4283 7.18304 10.1749 5.94613C8.80804 4.59728 8.80804 2.41036 10.1749 1.06151C11.5417 -0.287339 13.7578 -0.28734 15.1246 1.06151C16.4008 2.32088 16.7544 2.71196 17.5501 7.25683C17.5685 7.36182 17.5871 7.46903 17.606 7.57851C17.6217 7.47637 17.6373 7.3761 17.6529 7.27766C18.2837 3.29788 18.8365 2.30986 20.1023 1.06071C21.4691 -0.28814 23.6852 -0.28814 25.052 1.06071C26.4189 2.40956 26.4189 4.59648 25.052 5.94533ZM10.8867 1.76392C9.91292 2.72484 9.91292 4.2828 10.8867 5.24372C11.4181 5.76819 12.0329 6.11178 13.0821 6.41016C13.9296 6.65119 15.0098 6.84956 16.4987 7.08998C16.1604 5.19561 15.9139 4.14968 15.6494 3.46099C15.3649 2.71995 15.0759 2.41823 14.4129 1.76392C13.4391 0.802999 11.8604 0.802999 10.8867 1.76392Z" fill="#CCB0E8"/>
</svg>
