<svg width="17" height="28" viewBox="0 0 17 28" fill="none" xmlns="http://www.w3.org/2000/svg">
<path d="M9.54 23.012C10.452 22.964 11.172 22.64 11.7 22.04C12.252 21.44 12.528 20.756 12.528 19.988C12.528 19.148 12.252 18.44 11.7 17.864C11.172 17.288 10.452 16.88 9.54 16.64V23.012ZM8.064 5.876C7.176 5.924 6.48 6.212 5.976 6.74C5.472 7.268 5.22 7.88 5.22 8.576C5.22 9.296 5.46 9.956 5.94 10.556C6.444 11.132 7.152 11.48 8.064 11.6V5.876ZM8.064 27.98V26.576C6.72 26.456 5.568 26.228 4.608 25.892C3.672 25.556 2.892 25.076 2.268 24.452C1.668 23.828 1.224 23.06 0.936 22.148C0.648 21.212 0.504 20.108 0.504 18.836H4.824C4.92 19.604 5.04 20.24 5.184 20.744C5.352 21.248 5.556 21.656 5.796 21.968C6.06 22.28 6.372 22.52 6.732 22.688C7.092 22.832 7.536 22.94 8.064 23.012V16.064C6.864 15.752 5.82 15.404 4.932 15.02C4.044 14.612 3.3 14.144 2.7 13.616C2.124 13.064 1.68 12.44 1.368 11.744C1.08 11.024 0.936 10.172 0.936 9.188C0.936 8.252 1.116 7.376 1.476 6.56C1.836 5.72 2.328 4.988 2.952 4.364C3.6 3.74 4.356 3.248 5.22 2.888C6.084 2.528 7.032 2.336 8.064 2.312V0.727999H9.54V2.312C13.98 2.456 16.308 4.784 16.524 9.296H12.276C12.156 8 11.868 7.124 11.412 6.668C10.98 6.188 10.356 5.924 9.54 5.876V12.068C11.148 12.596 12.432 13.112 13.392 13.616C14.376 14.12 15.12 14.66 15.624 15.236C16.152 15.788 16.5 16.4 16.668 17.072C16.836 17.744 16.92 18.524 16.92 19.412C16.92 20.468 16.74 21.428 16.38 22.292C16.044 23.132 15.552 23.864 14.904 24.488C14.256 25.112 13.476 25.604 12.564 25.964C11.652 26.324 10.644 26.528 9.54 26.576V27.98H8.064Z" fill="white"/>
</svg>
