<svg width="38" height="33" viewBox="0 0 38 33" fill="none" xmlns="http://www.w3.org/2000/svg">
<path fill-rule="evenodd" clip-rule="evenodd" d="M19.5858 0.585786C20.3668 -0.195262 21.6332 -0.195262 22.4142 0.585786L36.0414 14.213C36.2271 14.3065 36.4013 14.4308 36.5564 14.5858C36.965 14.9944 37.1598 15.5358 37.1409 16.0711C37.1598 16.6063 36.965 17.1477 36.5564 17.5563C36.4013 17.7114 36.2271 17.8357 36.0414 17.9292L22.4142 31.5564C21.6332 32.3374 20.3668 32.3374 19.5858 31.5564C18.8047 30.7753 18.8047 29.509 19.5858 28.7279L30.3137 18H2C0.895431 18 0 17.1046 0 16C0 14.8954 0.895431 14 2 14H30.1716L19.5858 3.41421C18.8047 2.63316 18.8047 1.36684 19.5858 0.585786Z" fill="white"/>
</svg>
