<svg width="65" height="33" viewBox="0 0 65 33" fill="none" xmlns="http://www.w3.org/2000/svg">
<path fill-rule="evenodd" clip-rule="evenodd" d="M46.5858 0.585786C47.3668 -0.195262 48.6332 -0.195262 49.4142 0.585786L63.0414 14.213C63.2271 14.3065 63.4013 14.4308 63.5564 14.5858C63.965 14.9944 64.1598 15.5358 64.1409 16.0711C64.1598 16.6063 63.965 17.1477 63.5564 17.5563C63.4013 17.7114 63.2271 17.8357 63.0414 17.9292L49.4142 31.5564C48.6332 32.3374 47.3668 32.3374 46.5858 31.5564C45.8047 30.7753 45.8047 29.509 46.5858 28.7279L57.3137 18H2C0.89543 18 0 17.1046 0 16C0 14.8954 0.89543 14 2 14H57.1716L46.5858 3.41421C45.8047 2.63316 45.8047 1.36684 46.5858 0.585786Z" fill="white"/>
</svg>
